<svg xmlns="http://www.w3.org/2000/svg" x="0px" y="0px"
width="64" height="64"
viewBox="0 0 172 172"
style=" fill:#000000;"><g fill="none" fill-rule="nonzero" stroke="none" stroke-width="1" stroke-linecap="butt" stroke-linejoin="miter" stroke-miterlimit="10" stroke-dasharray="" stroke-dashoffset="0" font-family="none" font-weight="none" font-size="none" text-anchor="none" style="mix-blend-mode: normal"><path d="M0,172v-172h172v172z" fill="none"></path><g fill="#ffffff"><path d="M22.50978,34.60156c-5.91502,0.02213 -10.70927,4.80291 -10.74803,10.71785l60.66624,36.75497c4.09194,2.47563 8.78355,3.78377 13.5661,3.78258c4.78443,-0.00327 9.47668,-1.31617 13.56807,-3.79636l60.67609,-36.74513c-0.042,-5.91294 -4.83498,-10.69071 -10.74803,-10.71391zM160.24219,51.63136l-44.98085,27.22865l44.98085,46.40793zM11.75781,51.63792v73.75534l46.0569,-45.87515zM110.54181,81.7168l-8.1957,4.96229c-10.05106,6.08503 -22.64922,6.08756 -32.70273,0.00656l-7.08815,-4.28255l-49.50157,49.32114c1.87445,3.48098 5.50257,5.65805 9.45612,5.67419h126.98044c3.96239,-0.01626 7.59701,-2.20323 9.46727,-5.6965zM96.75,99.4375h18.47656c1.48427,0 2.6875,1.20323 2.6875,2.6875c0,1.48427 -1.20323,2.6875 -2.6875,2.6875h-18.47656c-1.48427,0 -2.6875,-1.20323 -2.6875,-2.6875c0,-1.48427 1.20323,-2.6875 2.6875,-2.6875zM96.75,109.51563h31.91406c1.48427,0 2.6875,1.20323 2.6875,2.6875c0,1.48427 -1.20323,2.6875 -2.6875,2.6875h-31.91406c-1.48427,0 -2.6875,-1.20323 -2.6875,-2.6875c0,-1.48427 1.20323,-2.6875 2.6875,-2.6875zM96.75,119.59375h31.91406c1.48427,0 2.6875,1.20323 2.6875,2.6875c0,1.48427 -1.20323,2.6875 -2.6875,2.6875h-31.91406c-1.48427,0 -2.6875,-1.20323 -2.6875,-2.6875c0,-1.48427 1.20323,-2.6875 2.6875,-2.6875z"></path></g></g></svg>