<?xml version="1.0" encoding="utf-8"?>
<!-- Generator: Adobe Illustrator 16.0.0, SVG Export Plug-In . SVG Version: 6.00 Build 0)  -->
<!DOCTYPE svg PUBLIC "-//W3C//DTD SVG 1.1 Tiny//EN" "http://www.w3.org/Graphics/SVG/1.1/DTD/svg11-tiny.dtd">
<svg version="1.1" baseProfile="tiny" id="Layer_1" xmlns="http://www.w3.org/2000/svg" xmlns:xlink="http://www.w3.org/1999/xlink"
	 x="0px" y="0px" width="724.535px" height="709.205px" viewBox="0 0 724.535 709.205" xml:space="preserve">
<g>
	<path fill="#5221E6" d="M122.495,445c153.927,0.661,307.859,0.604,461.786,0.07c35.915-0.121,56.152-19.776,58.309-56.024
		c1.029-17.286,1.179-34.718,0.302-52.01c-2.525-49.697-17.327-65.458-67.615-66.373c-73.691-1.341-147.421-0.343-221.136-0.343
		c-73.717,0-147.447-0.991-221.139,0.336c-50.335,0.909-65.722,16.949-68.311,65.858c-0.915,17.292-0.518,34.699,0.197,52.017
		C66.397,425.129,86.669,444.848,122.495,445z M154.788,320.485c19.467,0,35.249,15.782,35.249,35.249s-15.782,35.249-35.249,35.249
		s-35.249-15.781-35.249-35.249S135.32,320.485,154.788,320.485z"/>
	<path fill="#5221E6" d="M643.122,140.661c-0.515-60.348-14.065-77.133-69.054-78.185c-71.516-1.366-143.088-0.325-214.637-0.347
		c-73.72-0.022-147.44-0.851-221.149,0.235c-60.918,0.895-73.653,15.789-73.832,80.188c-0.19,64.667,12.813,81.094,72.254,81.508
		c145.258,1.018,290.528,1.063,435.786-0.057C629.761,223.568,643.671,205.194,643.122,140.661z M154.788,179.491
		c-19.47,0-35.249-15.778-35.249-35.249c0-19.47,15.778-35.249,35.249-35.249c19.471,0,35.249,15.778,35.249,35.249
		C190.037,163.712,174.258,179.491,154.788,179.491z"/>
	<path fill="#5221E6" d="M575.651,491.916c-147.422-1.214-294.866-1.175-442.29-0.032c-54.846,0.419-68.397,17.978-68.902,78.438
		c-0.54,64.74,12.978,81.994,70.668,83.081c71.522,1.347,143.092,0.324,214.64,0.305c75.884-0.019,151.798,1.284,227.641-0.47
		c52.721-1.219,65.888-19.604,65.709-81.658C642.936,509.855,630.03,492.359,575.651,491.916z M154.788,602.475
		c-19.467,0-35.249-15.781-35.249-35.249s15.781-35.249,35.249-35.249s35.249,15.782,35.249,35.249S174.255,602.475,154.788,602.475
		z"/>
</g>
</svg>
