<?xml version="1.0" encoding="utf-8"?>
<!-- Generator: Adobe Illustrator 16.0.0, SVG Export Plug-In . SVG Version: 6.00 Build 0)  -->
<!DOCTYPE svg PUBLIC "-//W3C//DTD SVG 1.1 Tiny//EN" "http://www.w3.org/Graphics/SVG/1.1/DTD/svg11-tiny.dtd">
<svg version="1.1" baseProfile="tiny" id="Layer_1" xmlns="http://www.w3.org/2000/svg" xmlns:xlink="http://www.w3.org/1999/xlink"
	 x="0px" y="0px" width="724.535px" height="709.205px" viewBox="0 0 724.535 709.205" xml:space="preserve">
<g>
	<path fill-rule="evenodd" fill="#5221E6" d="M717.954,406.831c-7.251,26.87-14.692,51.419-24.091,76.357
		c-4.586,12.168-6.954,34.365-27.438,25.69c-16.99-7.195-5.317-23.072-1.102-35.085c18.436-52.54,29.232-105.864,19.051-161.857
		c-2.29-12.593-9.354-30.062,7.372-35.604C713.641,269.076,735.953,322.451,717.954,406.831z"/>
	<path fill-rule="evenodd" fill="#5221E6" d="M9.957,377.331c13.433-3.13,27.894-2.287,30.931,18.665
		c5.965,41.16,18.04,80.638,38.584,117.229c4.872,8.679,8.939,19.532-2.409,25.579c-12.968,6.914-19.073-3.263-25.256-13.273
		c-19.952-32.302-26.432-69.904-41.85-103.948C6.453,412.014-3.476,380.461,9.957,377.331z"/>
	<path fill-rule="evenodd" fill="#5221E6" d="M393.039,1.335c13.075,18.797,9.532,29.817-14.702,29.525
		c-41.832-0.504-82.486,5.629-122.086,19.187c-10.915,3.734-23.212,5.517-27.014-8.866c-3.14-11.876,6.77-16.737,16.732-19.751
		C267.963,14.771,385.447-7.841,393.039,1.335z"/>
	<path fill-rule="evenodd" fill="#5221E6" d="M351.911,12.576"/>
	<path fill-rule="evenodd" fill="#5221E6" d="M177.262,659.683c-10.427-6.475-25.569-12.096-17.107-26.651
		c8.2-14.102,21.29-5.29,31.85,1.232c32.48,20.058,67.144,34.952,104.742,41.919c19.527,3.619,27.127,13.792,22.958,33.022
		C309.873,709.205,212.576,681.61,177.262,659.683z"/>
	<path fill-rule="evenodd" fill="#5221E6" d="M289.553,532.643c-30.196-0.878-47.682,71.881-90.889,19.183
		c-16.021-19.543-49.052-32.42-46.428-57.671c2.299-22.114,25.569-42.046,40.153-63.8c-82.93-16.468-82.889-16.464-80.653-97.358
		c1.631-59.061,53.668-23.99,78.42-44.84c-4.638-25.56-46.23-40.785-37.422-67.286c8.05-24.224,34.03-44.333,55.712-61.78
		c40.031-32.208,51.396,27.818,85.225,28.088c6.673-23.76-2.96-58.071,18.119-72.882c21.057-14.797,52.44-5.207,79.129-4.508
		c57.107,1.501,22.618,54.214,42.784,77.617c31.606-1.12,52.156-73.383,94.667-16.871c14.944,19.867,49.313,30.468,43.803,58.478
		c-4.229,21.502-25.967,39.558-40.672,60.206c83.566,16.802,83.503,16.802,81.301,97.484c-1.611,59.126-53.656,24.052-78.411,44.913
		c4.649,25.514,46.187,40.771,37.392,67.261c-8.045,24.224-34.014,44.351-55.698,61.79c-40.004,32.168-51.425-27.775-85.145-28.095
		c-6.867,23.76,2.908,58.114-18.243,72.914c-21.088,14.757-52.438,5.074-79.149,4.52
		C275.694,608.798,313.154,554.57,289.553,532.643z M223.167,539.236c12.388-8.549,19.527-13.119,26.292-18.192
		c64.689-48.503,65.381-48.636,77.343,29.1c3.552,23.09,11.225,32.323,36.605,32.312c24.593-0.011,30.519-10.123,33.974-30.951
		c13.141-79.205,14.323-79.986,76.197-30.817c18.917,15.031,29.467,12.892,44.93-3.619c14.084-15.042,21.799-24.44,5.58-44.88
		c-50.3-63.386-49.358-64.941,28.396-76.825c23.125-3.533,32.377-11.185,32.348-36.58c-0.03-24.501-9.65-32.38-30.942-33.738
		c-9.79-0.623-19.564-1.682-29.302-2.899c-13.133-1.642-29.292,0.825-36.437-12.766c-7.853-14.937,6.534-24.35,14.222-34.844
		c6.529-8.909,12.438-18.578,20.333-26.122c17.652-16.867,13.434-29.244-3.196-44.739c-15.029-14.001-24.366-21.888-44.862-5.604
		c-63.402,50.382-64.952,49.425-76.913-28.398c-3.543-23.054-11.125-32.413-36.562-32.363c-24.498,0.047-32.37,9.662-33.736,30.94
		c-0.63,9.788-1.691,19.564-2.906,29.302c-1.642,13.133,0.794,29.288-12.791,36.421c-14.928,7.836-24.368-6.511-34.856-14.217
		c-8.9-6.543-18.533-12.492-26.091-20.378c-16.919-17.649-29.284-13.223-44.757,3.32c-14.066,15.042-21.823,24.426-5.594,44.876
		c50.289,63.375,49.351,64.948-28.427,76.817c-23.204,3.543-32.475,11.056-32.339,36.623c0.129,24.523,9.751,32.316,30.996,33.706
		c11.016,0.724,22.022,1.8,32.975,3.183c11.965,1.512,26.36,0.047,32.844,12.449c7.027,13.439-4.701,22.557-12.004,32.078
		c-8.217,10.713-17.06,20.991-24.658,32.122c-5.058,7.411-17.083,13.911-9.329,24.93
		C200.286,513.395,212.063,525.901,223.167,539.236z"/>
	<path fill-rule="evenodd" fill="#5221E6" d="M599.391,615.142c-5.432,6.24-9.433,12.431-14.879,16.835
		c-34.468,27.868-73.083,48.257-115.394,61.318c-10.195,3.147-23.526,7.123-28.411-6.777c-5.036-14.329,7.609-18.204,18.239-21.679
		c39.734-12.981,76.236-31.941,108.891-58.208c6.768-5.444,14.52-10.414,23.056-3.929
		C594.411,605.375,596.206,610.313,599.391,615.142z"/>
	<path fill-rule="evenodd" fill="#5221E6" d="M532.092,44.785c5.504,2.888,13.315,6.381,20.512,10.857
		c34.759,21.643,64.378,49.054,89.927,80.97c7.238,9.042,14.298,18.65,2.951,28.766c-10.737,9.571-18.221,0.331-24.288-7.148
		c-27.354-33.742-59.12-62.223-96.607-84.376c-7.34-4.339-14.534-10.454-10.142-20.897C517.132,46.56,523.057,44.785,532.092,44.785
		z"/>
	<path fill-rule="evenodd" fill="#5221E6" d="M136.261,119.438c-3.848,6.158-6.341,11.833-10.289,16.198
		c-28.292,31.297-50.056,66.508-65.296,105.853c-3.597,9.291-8.635,19.546-21.043,15.114c-11.999-4.293-10.78-15.168-7.303-24.895
		c16.349-45.737,42.01-85.73,75.581-120.7c5.637-5.873,12.845-8.048,19.865-3.475C131.356,109.863,133.167,114.912,136.261,119.438z
		"/>
	<path fill-rule="evenodd" fill="#5221E6" d="M315.627,47.842c14.399-1.073,22.415,1.566,24.903,11.423
		c2.689,10.652-4.57,15.812-13.434,18.188c-19.908,5.337-40.074,9.72-59.936,15.208c-9.796,2.705-17.33,0.731-20.854-8.628
		c-3.736-9.924,2.114-16.979,11.01-19.751C278.149,57.784,299.32,52.375,315.627,47.842z"/>
	<path fill-rule="evenodd" fill="#5221E6" d="M414.586,48.501c14.031,3.684,33.025,8.106,51.635,13.792
		c9.761,2.981,18.515,9.24,14.15,21.408c-3.408,9.5-11.538,10.731-21.118,8.214c-18.797-4.94-37.885-8.769-56.715-13.587
		c-9.768-2.495-19.781-6.431-16.434-19.51C389.231,46.606,399.289,46.164,414.586,48.501z"/>
	<path fill-rule="evenodd" fill="#5221E6" d="M141.333,174.397c-12.836-3.807-17.575-13.115-8.982-24.361
		c14.951-19.564,33.254-36.288,54.639-48.683c13.064-7.573,21.217-1.386,21.923,13.234
		C209.279,122.211,149.905,174.797,141.333,174.397z"/>
	<path fill-rule="evenodd" fill="#5221E6" d="M116.183,221.896c-9.012,23.947-17.116,46.839-26.36,69.263
		c-3.054,7.411-10.288,9.69-18.306,6.1c-8.113-3.633-10.706-10.944-8.218-18.113c7.537-21.718,15.857-43.195,24.802-64.373
		c2.911-6.893,9.589-11.434,17.913-8.88C114.246,208.417,116.444,215.097,116.183,221.896z"/>
	<path fill-rule="evenodd" fill="#5221E6" d="M623.591,202.619c7.688,0.028,12.557,4.335,14.897,9.831
		c9.039,21.232,17.73,42.636,25.622,64.315c2.686,7.378-0.303,14.595-8.137,18.167c-6.111,2.788-13.972,2.272-16.379-3.327
		c-10.524-24.487-20.526-49.288-28.81-74.596C608.498,210.022,616.258,204.225,623.591,202.619z"/>
	<path fill-rule="evenodd" fill="#5221E6" d="M584.317,565.036c-13.021-2.067-17.753-11.21-10.646-22.917
		c11.962-19.708,25.092-38.913,39.669-56.745c8.455-10.346,20.02-10.09,24.993,4.739
		C642.877,503.664,599.801,563.945,584.317,565.036z"/>
	<path fill-rule="evenodd" fill="#5221E6" d="M204.094,585.937c18.976,10.097,41.623,21.797,63.861,34.228
		c5.654,3.158,7.733,9.37,4.383,15.855c-3.164,6.122-9.5,9.06-15.271,7.894c-26.803-5.405-49.84-18.877-70.601-36.198
		c-4.863-4.058-6.197-10.238-1.93-16.349C188.425,585.804,193.514,583.416,204.094,585.937z"/>
	<path fill-rule="evenodd" fill="#5221E6" d="M528.606,98.098c13.771-1.246,68.323,44.757,69.389,57.664
		c1.071,12.95-9.276,20.93-17.839,14.995c-21.709-15.045-41.96-32.759-60.325-51.787
		C512.667,111.548,517.198,100.334,528.606,98.098z"/>
	<path fill-rule="evenodd" fill="#5221E6" d="M53.742,380.36c2.55-16.468-5.202-35.28,13.365-37.473
		c20.22-2.388,15.432,17.126,17.256,29.323c2.512,16.817,4.649,33.695,6.633,50.581c0.962,8.185-2.744,15.398-10.407,17.13
		c-9.696,2.193-16.118-3.893-18.088-13.436C59.074,409.87,56.148,393.151,53.742,380.36z"/>
	<path fill-rule="evenodd" fill="#5221E6" d="M673.412,385.318c-1.613,8.329-4.455,21.401-6.597,34.581
		c-1.694,10.432-5.066,20.659-17.242,19.266c-15.409-1.765-13.236-14.995-12.12-25.74c1.761-16.954,4.577-33.792,6.551-50.725
		c1.154-9.903,1.355-21.041,14.719-21.041c16.464,0,14.144,13.328,14.649,24.001C673.603,370.529,673.412,375.419,673.412,385.318z"
		/>
	<path fill-rule="evenodd" fill="#5221E6" d="M143.256,565.811c-15.29-1.221-57.642-61.733-53.022-75.331
		c5.133-15.117,16.662-14.469,24.907-4.343c14.508,17.818,27.777,36.875,39.545,56.616
		C161.677,554.478,155.958,563.474,143.256,565.811z"/>
	<path fill-rule="evenodd" fill="#5221E6" d="M546.407,596.65c-2.021,18.736-69.988,53.443-84.023,45.51
		c-9.368-5.297-12.206-15.009-3.18-20.465c22.762-13.763,46.497-26.23,70.877-36.835C538.953,581,544.732,590.24,546.407,596.65z"/>
	<path fill-rule="evenodd" fill="#5221E6" d="M365.279,635.466c16.611,0.706,45.233-12.226,46.443,11.257
		c1.46,28.351-27.037,17.864-49.986,17.944s-45.287,8.92-44.836-15.967C317.036,636.66,312.286,627.701,365.279,635.466z"/>
	<path fill-rule="evenodd" fill="#5221E6" d="M367.731,471.601c-65.275,0.655-118.237-49.939-119.508-114.161
		c-1.338-67.592,49.331-120.657,115.837-121.316c66.866-0.663,119.645,51.293,119.632,117.765
		C483.679,419.032,432.53,470.953,367.731,471.601z M367.655,442.147c46.117-1.156,86.44-42.201,86.557-88.11
		c0.121-47.246-42.836-89.541-89.877-88.493c-47.359,1.052-88.815,45.071-86.453,91.795
		C280.232,403.771,322.062,443.286,367.655,442.147z"/>
	<path fill-rule="evenodd" fill="#5221E6" d="M424.61,353.803c0.214,32.834-24.637,58.416-57.383,59.072
		c-32.948,0.655-58.833-23.746-59.915-56.49c-1.142-34.516,24.754-61.153,59.166-60.861
		C399.338,295.801,424.396,320.925,424.61,353.803z M395.146,355.729c-1.338-16.669-10.376-28.2-26.57-30.047
		c-16.943-1.93-28.686,9.229-30.766,25.052c-2.44,18.563,9.5,30.75,27.418,31.876C381.949,383.663,391.191,371.661,395.146,355.729z
		"/>
</g>
</svg>
